<?xml version="1.0" encoding="UTF-8" standalone="no"?><svg xmlns="http://www.w3.org/2000/svg" xmlns:xlink="http://www.w3.org/1999/xlink" contentScriptType="application/ecmascript" contentStyleType="text/css" height="826px" preserveAspectRatio="none" style="width:844px;height:826px;" version="1.1" viewBox="0 0 844 826" width="844px" zoomAndPan="magnify"><defs><filter height="300%" id="f1s7cm2exinowo" width="300%" x="-1" y="-1"><feGaussianBlur result="blurOut" stdDeviation="2.0"/><feColorMatrix in="blurOut" result="blurOut2" type="matrix" values="0 0 0 0 0 0 0 0 0 0 0 0 0 0 0 0 0 0 .4 0"/><feOffset dx="4.0" dy="4.0" in="blurOut2" result="blurOut3"/><feBlend in="SourceGraphic" in2="blurOut3" mode="normal"/></filter></defs><g><!--class Ontology--><rect fill="#FEFECE" filter="url(#f1s7cm2exinowo)" height="176.0469" id="Ontology" style="stroke: #A80036; stroke-width: 1.5;" width="213" x="346.5" y="639"/><ellipse cx="421.25" cy="655" fill="#ADD1B2" rx="11" ry="11" style="stroke: #A80036; stroke-width: 1.0;"/><path d="M425.3594,661 L417.6406,661 L417.6406,648.6094 L425.3594,648.6094 L425.3594,650.7656 L420.0938,650.7656 L420.0938,653.4375 L424.8594,653.4375 L424.8594,655.5938 L420.0938,655.5938 L420.0938,658.8438 L425.3594,658.8438 L425.3594,661 Z "/><text fill="#000000" font-family="sans-serif" font-size="12" lengthAdjust="spacingAndGlyphs" textLength="55" x="441.75" y="659.1543">Ontology</text><line style="stroke: #A80036; stroke-width: 1.5;" x1="347.5" x2="558.5" y1="671" y2="671"/><text fill="#000000" font-family="sans-serif" font-size="11" lengthAdjust="spacingAndGlyphs" textLength="46" x="352.5" y="685.2104">Process</text><text fill="#000000" font-family="sans-serif" font-size="11" lengthAdjust="spacingAndGlyphs" textLength="47" x="352.5" y="698.0151">Function</text><text fill="#000000" font-family="sans-serif" font-size="11" lengthAdjust="spacingAndGlyphs" textLength="65" x="352.5" y="710.8198">Component</text><line style="stroke: #A80036; stroke-width: 1.0;" x1="347.5" x2="558.5" y1="717.4141" y2="717.4141"/><text fill="#000000" font-family="sans-serif" font-size="11" font-weight="bold" lengthAdjust="spacingAndGlyphs" textLength="142" x="366.5" y="731.6245">Example namespaces:</text><ellipse cx="357.5" cy="742.1211" fill="#000000" rx="3" ry="3" style="stroke: #000000; stroke-width: 1.0;"/><text fill="#000000" font-family="sans-serif" font-size="11" lengthAdjust="spacingAndGlyphs" textLength="103" x="366.5" y="744.4292">Molecular function</text><ellipse cx="357.5" cy="754.9258" fill="#000000" rx="3" ry="3" style="stroke: #000000; stroke-width: 1.0;"/><text fill="#000000" font-family="sans-serif" font-size="11" lengthAdjust="spacingAndGlyphs" textLength="110" x="366.5" y="757.2339">Cellular component</text><ellipse cx="357.5" cy="767.7305" fill="#000000" rx="3" ry="3" style="stroke: #000000; stroke-width: 1.0;"/><text fill="#000000" font-family="sans-serif" font-size="11" lengthAdjust="spacingAndGlyphs" textLength="104" x="366.5" y="770.0386">Biological process</text><text fill="#000000" font-family="sans-serif" font-size="11" lengthAdjust="spacingAndGlyphs" textLength="0" x="370.5" y="782.8433"/><text fill="#000000" font-family="sans-serif" font-size="11" lengthAdjust="spacingAndGlyphs" textLength="127" x="366.5" y="795.6479">Note: One GO Term is</text><text fill="#000000" font-family="sans-serif" font-size="11" lengthAdjust="spacingAndGlyphs" textLength="187" x="366.5" y="808.4526">contained within one namespace</text><!--class Term--><rect fill="#FEFECE" filter="url(#f1s7cm2exinowo)" height="48" id="Term" style="stroke: #A80036; stroke-width: 1.5;" width="85" x="410.5" y="510.5"/><ellipse cx="425.5" cy="526.5" fill="#ADD1B2" rx="11" ry="11" style="stroke: #A80036; stroke-width: 1.0;"/><path d="M429.6094,532.5 L421.8906,532.5 L421.8906,520.1094 L429.6094,520.1094 L429.6094,522.2656 L424.3438,522.2656 L424.3438,524.9375 L429.1094,524.9375 L429.1094,527.0938 L424.3438,527.0938 L424.3438,530.3438 L429.6094,530.3438 L429.6094,532.5 Z "/><text fill="#000000" font-family="sans-serif" font-size="12" lengthAdjust="spacingAndGlyphs" textLength="53" x="439.5" y="530.6543">GO Term</text><line style="stroke: #A80036; stroke-width: 1.5;" x1="411.5" x2="494.5" y1="542.5" y2="542.5"/><line style="stroke: #A80036; stroke-width: 1.5;" x1="411.5" x2="494.5" y1="550.5" y2="550.5"/><!--class GeneProduct--><rect fill="#FEFECE" filter="url(#f1s7cm2exinowo)" height="48" id="GeneProduct" style="stroke: #A80036; stroke-width: 1.5;" width="118" x="156" y="510.5"/><ellipse cx="171" cy="526.5" fill="#ADD1B2" rx="11" ry="11" style="stroke: #A80036; stroke-width: 1.0;"/><path d="M175.1094,532.5 L167.3906,532.5 L167.3906,520.1094 L175.1094,520.1094 L175.1094,522.2656 L169.8438,522.2656 L169.8438,524.9375 L174.6094,524.9375 L174.6094,527.0938 L169.8438,527.0938 L169.8438,530.3438 L175.1094,530.3438 L175.1094,532.5 Z "/><text fill="#000000" font-family="sans-serif" font-size="12" lengthAdjust="spacingAndGlyphs" textLength="86" x="185" y="530.6543">Gene Product</text><line style="stroke: #A80036; stroke-width: 1.5;" x1="157" x2="273" y1="542.5" y2="542.5"/><line style="stroke: #A80036; stroke-width: 1.5;" x1="157" x2="273" y1="550.5" y2="550.5"/><!--class Annotation--><rect fill="#FEFECE" filter="url(#f1s7cm2exinowo)" height="150.4375" id="Annotation" style="stroke: #A80036; stroke-width: 1.5;" width="181" x="195.5" y="249"/><ellipse cx="247.25" cy="265" fill="#ADD1B2" rx="11" ry="11" style="stroke: #A80036; stroke-width: 1.0;"/><path d="M251.3594,271 L243.6406,271 L243.6406,258.6094 L251.3594,258.6094 L251.3594,260.7656 L246.0938,260.7656 L246.0938,263.4375 L250.8594,263.4375 L250.8594,265.5938 L246.0938,265.5938 L246.0938,268.8438 L251.3594,268.8438 L251.3594,271 Z "/><text fill="#000000" font-family="sans-serif" font-size="12" lengthAdjust="spacingAndGlyphs" textLength="69" x="267.75" y="269.1543">Annotation</text><line style="stroke: #A80036; stroke-width: 1.5;" x1="196.5" x2="375.5" y1="281" y2="281"/><text fill="#000000" font-family="sans-serif" font-size="11" lengthAdjust="spacingAndGlyphs" textLength="63" x="201.5" y="295.2104">description</text><text fill="#000000" font-family="sans-serif" font-size="11" lengthAdjust="spacingAndGlyphs" textLength="55" x="201.5" y="308.0151">reference</text><text fill="#000000" font-family="sans-serif" font-size="11" lengthAdjust="spacingAndGlyphs" textLength="50" x="201.5" y="320.8198">methods</text><line style="stroke: #A80036; stroke-width: 1.0;" x1="196.5" x2="375.5" y1="327.4141" y2="327.4141"/><polygon fill="none" points="206.5,334.3164,210.5,338.3164,206.5,342.3164,202.5,338.3164" style="stroke: #B38D22; stroke-width: 1.0;"/><text fill="#000000" font-family="sans-serif" font-size="11" lengthAdjust="spacingAndGlyphs" textLength="117" x="215.5" y="341.6245">evidence code enum</text><text fill="#000000" font-family="sans-serif" font-size="11" lengthAdjust="spacingAndGlyphs" textLength="108" x="215.5" y="354.4292">Interresting terms:</text><text fill="#000000" font-family="sans-serif" font-size="11" font-weight="bold" lengthAdjust="spacingAndGlyphs" textLength="18" x="215.5" y="367.2339">ND</text><text fill="#000000" font-family="sans-serif" font-size="11" lengthAdjust="spacingAndGlyphs" textLength="133" x="237.5" y="367.2339">- No Bio. Data Available</text><text fill="#000000" font-family="sans-serif" font-size="11" lengthAdjust="spacingAndGlyphs" textLength="0" x="219.5" y="380.0386"/><text fill="#000000" font-family="sans-serif" font-size="11" lengthAdjust="spacingAndGlyphs" textLength="84" x="215.5" y="392.8433">EXP, IDA, IPI ...</text><!--class Gene--><rect fill="#FEFECE" filter="url(#f1s7cm2exinowo)" height="48" id="Gene" style="stroke: #A80036; stroke-width: 1.5;" width="65" x="127.5" y="429"/><ellipse cx="142.5" cy="445" fill="#ADD1B2" rx="11" ry="11" style="stroke: #A80036; stroke-width: 1.0;"/><path d="M146.6094,451 L138.8906,451 L138.8906,438.6094 L146.6094,438.6094 L146.6094,440.7656 L141.3438,440.7656 L141.3438,443.4375 L146.1094,443.4375 L146.1094,445.5938 L141.3438,445.5938 L141.3438,448.8438 L146.6094,448.8438 L146.6094,451 Z "/><text fill="#000000" font-family="sans-serif" font-size="12" lengthAdjust="spacingAndGlyphs" textLength="33" x="156.5" y="449.1543">Gene</text><line style="stroke: #A80036; stroke-width: 1.5;" x1="128.5" x2="191.5" y1="461" y2="461"/><line style="stroke: #A80036; stroke-width: 1.5;" x1="128.5" x2="191.5" y1="469" y2="469"/><!--class GeneFunction--><rect fill="#FEFECE" filter="url(#f1s7cm2exinowo)" height="48" id="GeneFunction" style="stroke: #A80036; stroke-width: 1.5;" width="123" x="153.5" y="703"/><ellipse cx="168.5" cy="719" fill="#ADD1B2" rx="11" ry="11" style="stroke: #A80036; stroke-width: 1.0;"/><path d="M172.6094,725 L164.8906,725 L164.8906,712.6094 L172.6094,712.6094 L172.6094,714.7656 L167.3438,714.7656 L167.3438,717.4375 L172.1094,717.4375 L172.1094,719.5938 L167.3438,719.5938 L167.3438,722.8438 L172.6094,722.8438 L172.6094,725 Z "/><text fill="#000000" font-family="sans-serif" font-size="12" lengthAdjust="spacingAndGlyphs" textLength="91" x="182.5" y="723.1543">Gene Function</text><line style="stroke: #A80036; stroke-width: 1.5;" x1="154.5" x2="275.5" y1="735" y2="735"/><line style="stroke: #A80036; stroke-width: 1.5;" x1="154.5" x2="275.5" y1="743" y2="743"/><!--class Slim--><rect fill="#FEFECE" filter="url(#f1s7cm2exinowo)" height="48" id="Slim" style="stroke: #A80036; stroke-width: 1.5;" width="79" x="456.5" y="8"/><ellipse cx="471.5" cy="24" fill="#ADD1B2" rx="11" ry="11" style="stroke: #A80036; stroke-width: 1.0;"/><path d="M475.6094,30 L467.8906,30 L467.8906,17.6094 L475.6094,17.6094 L475.6094,19.7656 L470.3438,19.7656 L470.3438,22.4375 L475.1094,22.4375 L475.1094,24.5938 L470.3438,24.5938 L470.3438,27.8438 L475.6094,27.8438 L475.6094,30 Z "/><text fill="#000000" font-family="sans-serif" font-size="12" lengthAdjust="spacingAndGlyphs" textLength="47" x="485.5" y="28.1543">GO Slim</text><line style="stroke: #A80036; stroke-width: 1.5;" x1="457.5" x2="534.5" y1="40" y2="40"/><line style="stroke: #A80036; stroke-width: 1.5;" x1="457.5" x2="534.5" y1="48" y2="48"/><!--class ADS--><rect fill="#FEFECE" filter="url(#f1s7cm2exinowo)" height="48" id="ADS" style="stroke: #A80036; stroke-width: 1.5;" width="155" x="488.5" y="300"/><ellipse cx="503.5" cy="316" fill="#ADD1B2" rx="11" ry="11" style="stroke: #A80036; stroke-width: 1.0;"/><path d="M507.6094,322 L499.8906,322 L499.8906,309.6094 L507.6094,309.6094 L507.6094,311.7656 L502.3438,311.7656 L502.3438,314.4375 L507.1094,314.4375 L507.1094,316.5938 L502.3438,316.5938 L502.3438,319.8438 L507.6094,319.8438 L507.6094,322 Z "/><text fill="#000000" font-family="sans-serif" font-size="12" lengthAdjust="spacingAndGlyphs" textLength="123" x="517.5" y="320.1543">Annotation Dataset</text><line style="stroke: #A80036; stroke-width: 1.5;" x1="489.5" x2="642.5" y1="332" y2="332"/><line style="stroke: #A80036; stroke-width: 1.5;" x1="489.5" x2="642.5" y1="340" y2="340"/><!--class Evidence--><rect fill="#FEFECE" filter="url(#f1s7cm2exinowo)" height="48" id="Evidence" style="stroke: #A80036; stroke-width: 1.5;" width="173" x="480.5" y="120.5"/><ellipse cx="495.5" cy="136.5" fill="#ADD1B2" rx="11" ry="11" style="stroke: #A80036; stroke-width: 1.0;"/><path d="M499.6094,142.5 L491.8906,142.5 L491.8906,130.1094 L499.6094,130.1094 L499.6094,132.2656 L494.3438,132.2656 L494.3438,134.9375 L499.1094,134.9375 L499.1094,137.0938 L494.3438,137.0938 L494.3438,140.3438 L499.6094,140.3438 L499.6094,142.5 Z "/><text fill="#000000" font-family="sans-serif" font-size="12" lengthAdjust="spacingAndGlyphs" textLength="141" x="509.5" y="140.6543">Experimental Evidence</text><line style="stroke: #A80036; stroke-width: 1.5;" x1="481.5" x2="652.5" y1="152.5" y2="152.5"/><line style="stroke: #A80036; stroke-width: 1.5;" x1="481.5" x2="652.5" y1="160.5" y2="160.5"/><path d="M6,117 L6,172.3984 L216,172.3984 L216,127 L206,117 L6,117 " fill="#FBFB77" filter="url(#f1s7cm2exinowo)" style="stroke: #A80036; stroke-width: 1.0;"/><path d="M206,117 L206,127 L216,127 L206,117 " fill="#FBFB77" style="stroke: #A80036; stroke-width: 1.0;"/><text fill="#000000" font-family="sans-serif" font-size="13" lengthAdjust="spacingAndGlyphs" textLength="148" x="12" y="134.0669">Identifies a Gene with a</text><text fill="#000000" font-family="sans-serif" font-size="13" lengthAdjust="spacingAndGlyphs" textLength="185" x="12" y="149.1997">piece of research, a function,</text><text fill="#000000" font-family="sans-serif" font-size="13" lengthAdjust="spacingAndGlyphs" textLength="90" x="12" y="164.3325">a location, etc</text><path d="M531,507 L531,562.3984 L733,562.3984 L733,517 L723,507 L531,507 " fill="#FBFB77" filter="url(#f1s7cm2exinowo)" style="stroke: #A80036; stroke-width: 1.0;"/><path d="M723,507 L723,517 L733,517 L723,507 " fill="#FBFB77" style="stroke: #A80036; stroke-width: 1.0;"/><text fill="#000000" font-family="sans-serif" font-size="13" lengthAdjust="spacingAndGlyphs" textLength="177" x="537" y="524.0669">GO Terms are a DAG so GO</text><text fill="#000000" font-family="sans-serif" font-size="13" lengthAdjust="spacingAndGlyphs" textLength="145" x="537" y="539.1997">terms may have many</text><text fill="#000000" font-family="sans-serif" font-size="13" lengthAdjust="spacingAndGlyphs" textLength="171" x="537" y="554.3325">parents and many children</text><!--link Term to Ontology--><path d="M453,558.8803 C453,578.0239 453,605.9803 453,633.6208 " fill="none" id="Term-Ontology" style="stroke: #A80036; stroke-width: 1.0;"/><polygon fill="#A80036" points="453,638.776,457,629.776,453,633.776,449,629.776,453,638.776" style="stroke: #A80036; stroke-width: 1.0;"/><text fill="#000000" font-family="sans-serif" font-size="13" lengthAdjust="spacingAndGlyphs" textLength="70" x="454" y="605.0669">Belongs To</text><!--link Annotation to Term--><path d="M345.5836,399.1038 C376.4953,438.0674 412.1829,483.0508 433.6485,510.1079 " fill="none" id="Annotation-Term" style="stroke: #A80036; stroke-width: 1.0;"/><text fill="#000000" font-family="sans-serif" font-size="13" lengthAdjust="spacingAndGlyphs" textLength="98" x="405" y="450.0669">Associates with</text><text fill="#000000" font-family="sans-serif" font-size="13" lengthAdjust="spacingAndGlyphs" textLength="87" x="412.5" y="465.1997">Gene Product</text><!--link GeneProduct to Term--><path d="M274.1373,534.5 C316.4018,534.5 372.2887,534.5 410.2663,534.5 " fill="none" id="GeneProduct-Term" style="stroke: #A80036; stroke-width: 1.0;"/><text fill="#000000" font-family="sans-serif" font-size="13" lengthAdjust="spacingAndGlyphs" textLength="100" x="292.25" y="527.5669">Is Annotated To</text><!--link Gene to GeneProduct--><path d="M176.2043,477.0119 C182.3595,486.1327 189.4284,496.6076 195.8318,506.0963 " fill="none" id="Gene-GeneProduct" style="stroke: #A80036; stroke-width: 1.0;"/><polygon fill="#A80036" points="198.7214,510.3781,197.0023,500.6804,195.9244,506.2336,190.3712,505.1557,198.7214,510.3781" style="stroke: #A80036; stroke-width: 1.0;"/><!--link Annotation to GeneProduct--><path d="M260.6681,399.1038 C247.526,438.0674 232.3534,483.0508 223.2273,510.1079 " fill="none" id="Annotation-GeneProduct" style="stroke: #A80036; stroke-width: 1.0;"/><text fill="#000000" font-family="sans-serif" font-size="13" lengthAdjust="spacingAndGlyphs" textLength="98" x="252" y="450.0669">Associates with</text><text fill="#000000" font-family="sans-serif" font-size="13" lengthAdjust="spacingAndGlyphs" textLength="57" x="274.5" y="465.1997">GO Term</text><!--link GeneProduct to GeneFunction--><path d="M215,558.8803 C215,594.1728 215,659.4174 215,697.4159 " fill="none" id="GeneProduct-GeneFunction" style="stroke: #A80036; stroke-width: 1.0;"/><polygon fill="#A80036" points="215,702.8177,219,693.8177,215,697.8177,211,693.8177,215,702.8177" style="stroke: #A80036; stroke-width: 1.0;"/><text fill="#000000" font-family="sans-serif" font-size="13" lengthAdjust="spacingAndGlyphs" textLength="47" x="216" y="605.0669">Causes</text><!--link Slim to Term--><path d="M535.7888,38.7648 C577.6665,48.2373 641.5183,69.905 671,117 C701.2332,165.2955 771.4924,205.4451 661,399 C642.7118,431.0364 555.8727,480.8176 500.3407,510.2862 " fill="none" id="Slim-Term" style="stroke: #A80036; stroke-width: 1.0;"/><polygon fill="#A80036" points="495.7337,512.7225,505.5596,512.0511,500.1537,510.3851,501.8198,504.9791,495.7337,512.7225" style="stroke: #A80036; stroke-width: 1.0;"/><text fill="#000000" font-family="sans-serif" font-size="13" lengthAdjust="spacingAndGlyphs" textLength="111" x="721" y="215.0669">Chosen subset of</text><!--link Slim to Annotation--><path d="M456.1561,37.5622 C411.1645,46.1352 339.6029,67.1697 304,117 C278.2058,153.1019 273.0429,202.2981 274.6405,243.6717 " fill="none" id="Slim-Annotation" style="stroke: #A80036; stroke-width: 1.0;"/><polygon fill="#A80036" points="274.8679,248.6771,278.4552,239.5048,274.6409,243.6823,270.4634,239.868,274.8679,248.6771" style="stroke: #A80036; stroke-width: 1.0;"/><text fill="#000000" font-family="sans-serif" font-size="13" lengthAdjust="spacingAndGlyphs" textLength="157" x="305" y="149.0669">Bins on (filter,query, etc)</text><!--link Annotation to ADS--><path d="M376.5213,324 C410.7973,324 449.6143,324 483.1497,324 " fill="none" id="Annotation-ADS" style="stroke: #A80036; stroke-width: 1.0;"/><polygon fill="#A80036" points="488.4851,324,479.4851,320,483.4851,324,479.4851,328,488.4851,324" style="stroke: #A80036; stroke-width: 1.0;"/><text fill="#000000" font-family="sans-serif" font-size="13" lengthAdjust="spacingAndGlyphs" textLength="75" x="395" y="317.0669">Recorded in</text><!--link Evidence to Annotation--><path d="M529.3947,168.5219 C491.5747,192.6809 431.7358,230.9054 380.8562,263.4068 " fill="none" id="Evidence-Annotation" style="stroke: #A80036; stroke-width: 1.0;"/><polygon fill="#A80036" points="376.5871,266.1339,386.325,264.6598,380.8008,263.4422,382.0183,257.918,376.5871,266.1339" style="stroke: #A80036; stroke-width: 1.0;"/><text fill="#000000" font-family="sans-serif" font-size="13" lengthAdjust="spacingAndGlyphs" textLength="58" x="478" y="215.0669">Backs up</text><!--link N1 to Annotation--><path d="M141.5661,175.8521 C161.3141,196.1079 187.8999,223.3773 212.8784,248.9981 " fill="none" id="N1-Annotation" style="stroke: #A80036; stroke-width: 1.0; stroke-dasharray: 7.0,7.0;"/><polygon fill="#A80036" points="137.9602,172.1535,141.3788,181.39,141.4506,175.7336,147.107,175.8054,137.9602,172.1535" style="stroke: #A80036; stroke-width: 1.0;"/><!--link N1 to Gene--><path d="M115.3915,172.1488 C124.6036,230.1475 145.8744,364.0662 155.3267,423.5775 " fill="none" id="N1-Gene" style="stroke: #A80036; stroke-width: 1.0; stroke-dasharray: 7.0,7.0;"/><polygon fill="#A80036" points="156.1496,428.7583,158.6881,419.2422,155.3652,423.8202,150.7871,420.4973,156.1496,428.7583" style="stroke: #A80036; stroke-width: 1.0;"/><!--link Term to N2--><path d="M495.6523,547.5682 C505.6304,549.6691 515.6085,551.0987 525.5866,551.8572 " fill="none" id="Term-N2" style="stroke: #A80036; stroke-width: 1.0; stroke-dasharray: 7.0,7.0;"/><polygon fill="#A80036" points="530.8045,552.1926,522.0797,547.6233,525.8148,551.8717,521.5664,555.6068,530.8045,552.1926" style="stroke: #A80036; stroke-width: 1.0;"/><!--link N2 to Term--><path d="M530.8045,516.8074 C520.7349,517.3367 510.6652,518.5495 500.5956,520.4459 " fill="none" id="N2-Term" style="stroke: #A80036; stroke-width: 1.0; stroke-dasharray: 7.0,7.0;"/><polygon fill="#A80036" points="495.6523,521.4318,505.2609,523.5941,500.5557,520.4538,503.6961,515.7487,495.6523,521.4318" style="stroke: #A80036; stroke-width: 1.0;"/><!--
@startuml
entity Ontology {
  Process
  Function
  Component
  - -
  **Example namespaces:**
  * Molecular function
  * Cellular component
  * Biological process
  
  Note: One GO Term is \ncontained within one namespace
}

entity "GO Term" as Term {

}

entity "Gene Product" as GeneProduct {

}

entity Annotation {
  description
  reference
  methods
  - -
  # evidence code enum  
    Interresting terms:
    **ND** - No Bio. Data Available

    EXP, IDA, IPI ...
}

entity Gene {

}

entity "Gene Function" as GeneFunction {

}

entity "GO Slim" as Slim {

}

entity "Annotation Dataset" as ADS {

}

entity "Experimental Evidence" as Evidence{
  
}

Note "Identifies a Gene with a \npiece of research, a function, \na location, etc" as N1
Note "GO Terms are a DAG so GO \nterms may have many \nparents and many children" as N2

Ontology<-down-Term: Belongs To
Term-up-Annotation: "Associates with \nGene Product"
Term-left-GeneProduct: Is Annotated To
Gene-right->GeneProduct: Encodes
Annotation- -GeneProduct: "Associates with \nGO Term"
GeneProduct- ->GeneFunction: Causes
Slim- - - ->Term: Chosen subset of
Slim- ->Annotation: Bins on (filter,query, etc)
Annotation-right->ADS: Recorded in
Evidence- ->Annotation: Backs up
N1<..Annotation
N1..>Gene
N2<.right.Term
N2..>Term
@enduml

PlantUML version 1.2019.04(Fri Mar 29 15:44:36 UTC 2019)
(GPL source distribution)
Java Runtime: OpenJDK Runtime Environment
JVM: OpenJDK 64-Bit Server VM
Java Version: 1.8.0_201-heroku-b09
Operating System: Linux
OS Version: 4.4.0-1048-aws
Default Encoding: UTF-8
Language: en
Country: US
--></g></svg>